<mxfile host="app.diagrams.net" agent="Mozilla/5.0 (Windows NT 10.0; Win64; x64) AppleWebKit/537.36 (KHTML, like Gecko) Chrome/138.0.0.0 Safari/537.36" version="27.2.0">
  <diagram name="Page-1" id="0loencRjvxYQ8rV2c6qY">
    <mxGraphModel dx="5704" dy="3024" grid="1" gridSize="10" guides="1" tooltips="1" connect="1" arrows="1" fold="1" page="1" pageScale="1" pageWidth="850" pageHeight="1100" math="0" shadow="0">
      <root>
        <mxCell id="0" />
        <mxCell id="1" parent="0" />
        <mxCell id="xTjwL-mP8u-0DNIWc8IQ-1" value="" style="rounded=0;whiteSpace=wrap;html=1;strokeWidth=4;movable=0;resizable=0;rotatable=0;deletable=0;editable=0;locked=1;connectable=0;" vertex="1" parent="1">
          <mxGeometry x="349.995" y="290" width="545" height="2120" as="geometry" />
        </mxCell>
        <mxCell id="xTjwL-mP8u-0DNIWc8IQ-2" value="" style="rounded=0;whiteSpace=wrap;html=1;strokeWidth=4;movable=0;resizable=0;rotatable=0;deletable=0;editable=0;locked=1;connectable=0;" vertex="1" parent="1">
          <mxGeometry x="894.995" y="290" width="535" height="2120" as="geometry" />
        </mxCell>
        <mxCell id="xTjwL-mP8u-0DNIWc8IQ-3" value="" style="endArrow=none;html=1;rounded=0;exitX=0.003;exitY=0.114;exitDx=0;exitDy=0;exitPerimeter=0;entryX=1.005;entryY=0.113;entryDx=0;entryDy=0;entryPerimeter=0;strokeWidth=4;" edge="1" parent="1">
          <mxGeometry width="50" height="50" relative="1" as="geometry">
            <mxPoint x="340" y="391.82000000000005" as="sourcePoint" />
            <mxPoint x="1421.04" y="390.0000000000001" as="targetPoint" />
          </mxGeometry>
        </mxCell>
        <mxCell id="xTjwL-mP8u-0DNIWc8IQ-4" value="&lt;font style=&quot;font-size: 40px;&quot; face=&quot;Times New Roman&quot;&gt;ADMIN&lt;/font&gt;" style="text;html=1;align=center;verticalAlign=middle;whiteSpace=wrap;rounded=0;" vertex="1" parent="1">
          <mxGeometry x="515.625" y="340" width="195" height="30" as="geometry" />
        </mxCell>
        <mxCell id="xTjwL-mP8u-0DNIWc8IQ-5" value="&lt;font style=&quot;font-size: 40px;&quot; face=&quot;Times New Roman&quot;&gt;SYSTEM&lt;/font&gt;" style="text;html=1;align=center;verticalAlign=middle;whiteSpace=wrap;rounded=0;" vertex="1" parent="1">
          <mxGeometry x="1064.9950000000001" y="340" width="195" height="30" as="geometry" />
        </mxCell>
        <mxCell id="xTjwL-mP8u-0DNIWc8IQ-9" value="&lt;font style=&quot;font-size: 25px;&quot;&gt;MENAMPILKAN DASHBOARD&lt;/font&gt;&lt;div&gt;&lt;font style=&quot;font-size: 25px;&quot;&gt;&amp;nbsp;DAN SIDE BAR ADMIN&lt;/font&gt;&lt;/div&gt;" style="rounded=1;whiteSpace=wrap;html=1;strokeWidth=4;" vertex="1" parent="1">
          <mxGeometry x="995.615" y="590" width="336.88" height="162.28" as="geometry" />
        </mxCell>
        <mxCell id="xTjwL-mP8u-0DNIWc8IQ-10" value="" style="endArrow=classic;html=1;rounded=0;exitX=0;exitY=0.5;exitDx=0;exitDy=0;entryX=1;entryY=0.5;entryDx=0;entryDy=0;" edge="1" parent="1" source="xTjwL-mP8u-0DNIWc8IQ-9" target="xTjwL-mP8u-0DNIWc8IQ-11">
          <mxGeometry width="50" height="50" relative="1" as="geometry">
            <mxPoint x="779.995" y="922.28" as="sourcePoint" />
            <mxPoint x="1104.995" y="1142.28" as="targetPoint" />
            <Array as="points" />
          </mxGeometry>
        </mxCell>
        <mxCell id="xTjwL-mP8u-0DNIWc8IQ-11" value="&lt;font style=&quot;font-size: 27px;&quot;&gt;MENGAKSES KELOLA ITEM MENU&lt;/font&gt;" style="rounded=1;whiteSpace=wrap;html=1;strokeWidth=4;" vertex="1" parent="1">
          <mxGeometry x="469.995" y="597.28" width="319.69" height="147.72" as="geometry" />
        </mxCell>
        <mxCell id="xTjwL-mP8u-0DNIWc8IQ-19" value="" style="edgeStyle=orthogonalEdgeStyle;rounded=0;orthogonalLoop=1;jettySize=auto;html=1;exitX=0.5;exitY=1;exitDx=0;exitDy=0;" edge="1" parent="1" source="xTjwL-mP8u-0DNIWc8IQ-20" target="xTjwL-mP8u-0DNIWc8IQ-26">
          <mxGeometry relative="1" as="geometry" />
        </mxCell>
        <mxCell id="xTjwL-mP8u-0DNIWc8IQ-20" value="&lt;font style=&quot;font-size: 26px;&quot;&gt;MENAMPILKAN HALAMAN KELOLA ITEM MENU&lt;/font&gt;" style="whiteSpace=wrap;html=1;rounded=1;strokeWidth=4;" vertex="1" parent="1">
          <mxGeometry x="1006.2449999999999" y="770" width="293.75" height="167.72" as="geometry" />
        </mxCell>
        <mxCell id="xTjwL-mP8u-0DNIWc8IQ-21" value="" style="endArrow=classic;html=1;rounded=0;exitX=0.5;exitY=1;exitDx=0;exitDy=0;entryX=0;entryY=0.5;entryDx=0;entryDy=0;" edge="1" parent="1" source="xTjwL-mP8u-0DNIWc8IQ-11" target="xTjwL-mP8u-0DNIWc8IQ-20">
          <mxGeometry width="50" height="50" relative="1" as="geometry">
            <mxPoint x="1209.6750000000002" y="1780" as="sourcePoint" />
            <mxPoint x="1271.8649999999998" y="1550" as="targetPoint" />
            <Array as="points">
              <mxPoint x="630" y="860" />
            </Array>
          </mxGeometry>
        </mxCell>
        <mxCell id="xTjwL-mP8u-0DNIWc8IQ-22" value="" style="ellipse;whiteSpace=wrap;html=1;aspect=fixed;gradientColor=none;fillColor=#330000;" vertex="1" parent="1">
          <mxGeometry x="1122.495" y="450" width="80" height="80" as="geometry" />
        </mxCell>
        <mxCell id="xTjwL-mP8u-0DNIWc8IQ-23" value="" style="endArrow=classic;html=1;rounded=0;exitX=0.5;exitY=1;exitDx=0;exitDy=0;entryX=0.5;entryY=0;entryDx=0;entryDy=0;" edge="1" parent="1" source="xTjwL-mP8u-0DNIWc8IQ-22" target="xTjwL-mP8u-0DNIWc8IQ-9">
          <mxGeometry width="50" height="50" relative="1" as="geometry">
            <mxPoint x="569.995" y="810" as="sourcePoint" />
            <mxPoint x="612.9667900000004" y="589.2885999999999" as="targetPoint" />
          </mxGeometry>
        </mxCell>
        <mxCell id="xTjwL-mP8u-0DNIWc8IQ-25" value="" style="edgeStyle=orthogonalEdgeStyle;rounded=0;orthogonalLoop=1;jettySize=auto;html=1;" edge="1" parent="1" source="xTjwL-mP8u-0DNIWc8IQ-26" target="xTjwL-mP8u-0DNIWc8IQ-27">
          <mxGeometry relative="1" as="geometry" />
        </mxCell>
        <mxCell id="xTjwL-mP8u-0DNIWc8IQ-26" value="&lt;font style=&quot;font-size: 26px;&quot;&gt;DROP DOWN&lt;/font&gt;&lt;div&gt;&lt;font style=&quot;font-size: 26px;&quot;&gt;KEDAI KOPI&lt;/font&gt;&lt;/div&gt;" style="whiteSpace=wrap;html=1;rounded=1;strokeWidth=4;" vertex="1" parent="1">
          <mxGeometry x="482.965" y="996.14" width="293.75" height="167.72" as="geometry" />
        </mxCell>
        <mxCell id="xTjwL-mP8u-0DNIWc8IQ-27" value="&lt;font style=&quot;font-size: 26px;&quot;&gt;MENAMPILKAN SEMUA KEDAI KOPI YANG TERDAFTAR&lt;/font&gt;" style="whiteSpace=wrap;html=1;rounded=1;strokeWidth=4;" vertex="1" parent="1">
          <mxGeometry x="956.72" y="1000" width="443.12" height="160" as="geometry" />
        </mxCell>
        <mxCell id="xTjwL-mP8u-0DNIWc8IQ-28" value="" style="whiteSpace=wrap;html=1;rounded=1;strokeWidth=4;" vertex="1" parent="1">
          <mxGeometry x="380.615" y="1800" width="483.75" height="30" as="geometry" />
        </mxCell>
        <mxCell id="xTjwL-mP8u-0DNIWc8IQ-30" value="" style="endArrow=classic;html=1;rounded=0;exitX=0.772;exitY=1.226;exitDx=0;exitDy=0;exitPerimeter=0;" edge="1" parent="1">
          <mxGeometry width="50" height="50" relative="1" as="geometry">
            <mxPoint x="754.9099999999999" y="1830" as="sourcePoint" />
            <mxPoint x="754.825" y="1873.22" as="targetPoint" />
          </mxGeometry>
        </mxCell>
        <mxCell id="xTjwL-mP8u-0DNIWc8IQ-31" value="" style="endArrow=classic;html=1;rounded=0;exitX=0.772;exitY=1.226;exitDx=0;exitDy=0;exitPerimeter=0;" edge="1" parent="1">
          <mxGeometry width="50" height="50" relative="1" as="geometry">
            <mxPoint x="509.985" y="1830" as="sourcePoint" />
            <mxPoint x="509.985" y="1873" as="targetPoint" />
          </mxGeometry>
        </mxCell>
        <mxCell id="xTjwL-mP8u-0DNIWc8IQ-32" value="" style="edgeStyle=orthogonalEdgeStyle;rounded=0;orthogonalLoop=1;jettySize=auto;html=1;" edge="1" parent="1" source="xTjwL-mP8u-0DNIWc8IQ-33" target="xTjwL-mP8u-0DNIWc8IQ-43">
          <mxGeometry relative="1" as="geometry" />
        </mxCell>
        <mxCell id="xTjwL-mP8u-0DNIWc8IQ-33" value="&lt;span style=&quot;font-size: 26px;&quot;&gt;MENGEDIT&amp;nbsp;&lt;/span&gt;&lt;div&gt;&lt;span style=&quot;font-size: 26px;&quot;&gt;ITEM MENU&lt;/span&gt;&lt;/div&gt;" style="whiteSpace=wrap;html=1;rounded=1;strokeWidth=4;" vertex="1" parent="1">
          <mxGeometry x="389.985" y="1880" width="220" height="114" as="geometry" />
        </mxCell>
        <mxCell id="xTjwL-mP8u-0DNIWc8IQ-34" value="" style="edgeStyle=orthogonalEdgeStyle;rounded=0;orthogonalLoop=1;jettySize=auto;html=1;" edge="1" parent="1" source="xTjwL-mP8u-0DNIWc8IQ-35" target="xTjwL-mP8u-0DNIWc8IQ-36">
          <mxGeometry relative="1" as="geometry" />
        </mxCell>
        <mxCell id="xTjwL-mP8u-0DNIWc8IQ-35" value="&lt;font style=&quot;font-size: 26px;&quot;&gt;MENGHAPUS&lt;/font&gt;&lt;div&gt;&lt;font style=&quot;font-size: 26px;&quot;&gt;ITEM MENU&lt;/font&gt;&lt;/div&gt;" style="whiteSpace=wrap;html=1;rounded=1;strokeWidth=4;" vertex="1" parent="1">
          <mxGeometry x="639.985" y="1880" width="210" height="114" as="geometry" />
        </mxCell>
        <mxCell id="xTjwL-mP8u-0DNIWc8IQ-36" value="&lt;span style=&quot;font-size: 26px;&quot;&gt;MENAMPILKAN ALERT UNTUK MENGHAPUS&lt;/span&gt;" style="whiteSpace=wrap;html=1;rounded=1;strokeWidth=4;" vertex="1" parent="1">
          <mxGeometry x="929.995" y="1880" width="210" height="114" as="geometry" />
        </mxCell>
        <mxCell id="xTjwL-mP8u-0DNIWc8IQ-37" value="" style="edgeStyle=orthogonalEdgeStyle;rounded=0;orthogonalLoop=1;jettySize=auto;html=1;" edge="1" parent="1" source="xTjwL-mP8u-0DNIWc8IQ-39" target="xTjwL-mP8u-0DNIWc8IQ-45">
          <mxGeometry relative="1" as="geometry" />
        </mxCell>
        <mxCell id="xTjwL-mP8u-0DNIWc8IQ-38" value="&lt;font style=&quot;font-size: 26px;&quot;&gt;IYA&lt;/font&gt;" style="edgeLabel;html=1;align=center;verticalAlign=middle;resizable=0;points=[];" vertex="1" connectable="0" parent="xTjwL-mP8u-0DNIWc8IQ-37">
          <mxGeometry x="-0.4444" y="2" relative="1" as="geometry">
            <mxPoint as="offset" />
          </mxGeometry>
        </mxCell>
        <mxCell id="xTjwL-mP8u-0DNIWc8IQ-39" value="" style="rhombus;whiteSpace=wrap;html=1;strokeWidth=4;" vertex="1" parent="1">
          <mxGeometry x="1189.995" y="1892" width="100" height="90" as="geometry" />
        </mxCell>
        <mxCell id="xTjwL-mP8u-0DNIWc8IQ-40" value="" style="edgeStyle=orthogonalEdgeStyle;rounded=0;orthogonalLoop=1;jettySize=auto;html=1;exitX=1;exitY=0.5;exitDx=0;exitDy=0;entryX=0;entryY=0.5;entryDx=0;entryDy=0;" edge="1" parent="1" source="xTjwL-mP8u-0DNIWc8IQ-36" target="xTjwL-mP8u-0DNIWc8IQ-39">
          <mxGeometry relative="1" as="geometry">
            <mxPoint x="1159.995" y="1910" as="sourcePoint" />
            <mxPoint x="1249.995" y="1910" as="targetPoint" />
          </mxGeometry>
        </mxCell>
        <mxCell id="xTjwL-mP8u-0DNIWc8IQ-41" value="" style="edgeStyle=orthogonalEdgeStyle;rounded=0;orthogonalLoop=1;jettySize=auto;html=1;exitX=0.5;exitY=0;exitDx=0;exitDy=0;entryX=0.25;entryY=1;entryDx=0;entryDy=0;" edge="1" parent="1" source="xTjwL-mP8u-0DNIWc8IQ-39" target="xTjwL-mP8u-0DNIWc8IQ-57">
          <mxGeometry relative="1" as="geometry">
            <mxPoint x="1239.995" y="1720" as="sourcePoint" />
            <mxPoint x="1289.995" y="1720" as="targetPoint" />
          </mxGeometry>
        </mxCell>
        <mxCell id="xTjwL-mP8u-0DNIWc8IQ-42" value="" style="edgeStyle=orthogonalEdgeStyle;rounded=0;orthogonalLoop=1;jettySize=auto;html=1;" edge="1" parent="1" source="xTjwL-mP8u-0DNIWc8IQ-43" target="xTjwL-mP8u-0DNIWc8IQ-44">
          <mxGeometry relative="1" as="geometry" />
        </mxCell>
        <mxCell id="xTjwL-mP8u-0DNIWc8IQ-43" value="&lt;font style=&quot;font-size: 26px;&quot;&gt;MENGISI FORM EDIT&lt;/font&gt;" style="whiteSpace=wrap;html=1;rounded=1;strokeWidth=4;" vertex="1" parent="1">
          <mxGeometry x="389.985" y="2074" width="220" height="114" as="geometry" />
        </mxCell>
        <mxCell id="xTjwL-mP8u-0DNIWc8IQ-44" value="&lt;font style=&quot;font-size: 26px;&quot;&gt;MENGUBAH ISI&amp;nbsp;&lt;/font&gt;&lt;span style=&quot;font-size: 26px; background-color: transparent; color: light-dark(rgb(0, 0, 0), rgb(255, 255, 255));&quot;&gt;&amp;nbsp;MENU&lt;/span&gt;" style="whiteSpace=wrap;html=1;rounded=1;strokeWidth=4;" vertex="1" parent="1">
          <mxGeometry x="929.995" y="2074" width="170" height="114" as="geometry" />
        </mxCell>
        <mxCell id="xTjwL-mP8u-0DNIWc8IQ-45" value="&lt;font style=&quot;font-size: 24px;&quot;&gt;MENGHAPUS MENU&lt;/font&gt;" style="rounded=1;whiteSpace=wrap;html=1;strokeWidth=4;" vertex="1" parent="1">
          <mxGeometry x="1157.495" y="2078" width="165" height="110" as="geometry" />
        </mxCell>
        <mxCell id="xTjwL-mP8u-0DNIWc8IQ-46" value="" style="edgeStyle=orthogonalEdgeStyle;rounded=0;orthogonalLoop=1;jettySize=auto;html=1;exitX=0.5;exitY=1;exitDx=0;exitDy=0;entryX=0.889;entryY=1.008;entryDx=0;entryDy=0;entryPerimeter=0;" edge="1" parent="1" source="xTjwL-mP8u-0DNIWc8IQ-44" target="xTjwL-mP8u-0DNIWc8IQ-57">
          <mxGeometry relative="1" as="geometry">
            <mxPoint x="1039.995" y="2130" as="sourcePoint" />
            <mxPoint x="1340" y="1690" as="targetPoint" />
            <Array as="points">
              <mxPoint x="1025" y="2188" />
              <mxPoint x="1025" y="2230" />
              <mxPoint x="1343" y="2230" />
              <mxPoint x="1343" y="1690" />
              <mxPoint x="1343" y="1690" />
            </Array>
          </mxGeometry>
        </mxCell>
        <mxCell id="xTjwL-mP8u-0DNIWc8IQ-47" value="&lt;font style=&quot;font-size: 34px;&quot;&gt;START&lt;/font&gt;" style="text;html=1;align=center;verticalAlign=middle;whiteSpace=wrap;rounded=0;" vertex="1" parent="1">
          <mxGeometry x="1099.055" y="420" width="126.87" height="30" as="geometry" />
        </mxCell>
        <mxCell id="xTjwL-mP8u-0DNIWc8IQ-48" value="" style="ellipse;html=1;shape=endState;fillColor=#000000;strokeColor=#ff0000;" vertex="1" parent="1">
          <mxGeometry x="564.2000000000002" y="2280" width="75.79" height="80" as="geometry" />
        </mxCell>
        <mxCell id="xTjwL-mP8u-0DNIWc8IQ-50" value="&lt;font style=&quot;font-size: 34px;&quot;&gt;END&lt;/font&gt;" style="text;html=1;align=center;verticalAlign=middle;whiteSpace=wrap;rounded=0;" vertex="1" parent="1">
          <mxGeometry x="538.6550000000001" y="2370" width="126.87" height="30" as="geometry" />
        </mxCell>
        <mxCell id="xTjwL-mP8u-0DNIWc8IQ-54" value="" style="edgeStyle=orthogonalEdgeStyle;rounded=0;orthogonalLoop=1;jettySize=auto;html=1;" edge="1" parent="1" source="xTjwL-mP8u-0DNIWc8IQ-52" target="xTjwL-mP8u-0DNIWc8IQ-53">
          <mxGeometry relative="1" as="geometry" />
        </mxCell>
        <mxCell id="xTjwL-mP8u-0DNIWc8IQ-52" value="&lt;span style=&quot;font-size: 26px;&quot;&gt;MEMILIH KEDAI KOPI&lt;/span&gt;" style="whiteSpace=wrap;html=1;rounded=1;strokeWidth=4;" vertex="1" parent="1">
          <mxGeometry x="482.97" y="1240" width="293.75" height="167.72" as="geometry" />
        </mxCell>
        <mxCell id="xTjwL-mP8u-0DNIWc8IQ-53" value="&lt;span style=&quot;font-size: 26px;&quot;&gt;MENGISI FORM&lt;/span&gt;" style="whiteSpace=wrap;html=1;rounded=1;strokeWidth=4;" vertex="1" parent="1">
          <mxGeometry x="482.97" y="1487.72" width="293.75" height="167.72" as="geometry" />
        </mxCell>
        <mxCell id="xTjwL-mP8u-0DNIWc8IQ-55" value="" style="edgeStyle=orthogonalEdgeStyle;rounded=0;orthogonalLoop=1;jettySize=auto;html=1;exitX=0.25;exitY=1;exitDx=0;exitDy=0;entryX=0.5;entryY=0;entryDx=0;entryDy=0;" edge="1" parent="1" source="xTjwL-mP8u-0DNIWc8IQ-27" target="xTjwL-mP8u-0DNIWc8IQ-52">
          <mxGeometry relative="1" as="geometry">
            <mxPoint x="1070" y="1460" as="sourcePoint" />
            <mxPoint x="1070" y="1540" as="targetPoint" />
          </mxGeometry>
        </mxCell>
        <mxCell id="xTjwL-mP8u-0DNIWc8IQ-57" value="&lt;span style=&quot;font-size: 26px;&quot;&gt;MENAMPILKAN SEMUA MENU&lt;/span&gt;" style="whiteSpace=wrap;html=1;rounded=1;strokeWidth=4;" vertex="1" parent="1">
          <mxGeometry x="939.05" y="1487.72" width="450" height="167.72" as="geometry" />
        </mxCell>
        <mxCell id="xTjwL-mP8u-0DNIWc8IQ-59" value="" style="edgeStyle=orthogonalEdgeStyle;rounded=0;orthogonalLoop=1;jettySize=auto;html=1;exitX=1;exitY=0.5;exitDx=0;exitDy=0;" edge="1" parent="1" source="xTjwL-mP8u-0DNIWc8IQ-53" target="xTjwL-mP8u-0DNIWc8IQ-57">
          <mxGeometry relative="1" as="geometry">
            <mxPoint x="850" y="1550" as="sourcePoint" />
            <mxPoint x="850" y="1630" as="targetPoint" />
          </mxGeometry>
        </mxCell>
        <mxCell id="xTjwL-mP8u-0DNIWc8IQ-60" value="" style="edgeStyle=orthogonalEdgeStyle;rounded=0;orthogonalLoop=1;jettySize=auto;html=1;exitX=0.144;exitY=0.979;exitDx=0;exitDy=0;exitPerimeter=0;entryX=0.5;entryY=0;entryDx=0;entryDy=0;" edge="1" parent="1" source="xTjwL-mP8u-0DNIWc8IQ-57" target="xTjwL-mP8u-0DNIWc8IQ-28">
          <mxGeometry relative="1" as="geometry">
            <mxPoint x="1000" y="1720" as="sourcePoint" />
            <mxPoint x="1173" y="1720" as="targetPoint" />
            <Array as="points">
              <mxPoint x="1015" y="1690" />
              <mxPoint x="622" y="1690" />
            </Array>
          </mxGeometry>
        </mxCell>
        <mxCell id="xTjwL-mP8u-0DNIWc8IQ-62" value="" style="edgeStyle=orthogonalEdgeStyle;rounded=0;orthogonalLoop=1;jettySize=auto;html=1;entryX=0.506;entryY=-0.025;entryDx=0;entryDy=0;entryPerimeter=0;exitX=0.948;exitY=0.986;exitDx=0;exitDy=0;exitPerimeter=0;" edge="1" parent="1" source="xTjwL-mP8u-0DNIWc8IQ-57" target="xTjwL-mP8u-0DNIWc8IQ-48">
          <mxGeometry relative="1" as="geometry">
            <mxPoint x="1380" y="2250" as="sourcePoint" />
            <mxPoint x="1260" y="2250" as="targetPoint" />
            <Array as="points">
              <mxPoint x="1370" y="2250" />
              <mxPoint x="603" y="2250" />
            </Array>
          </mxGeometry>
        </mxCell>
      </root>
    </mxGraphModel>
  </diagram>
</mxfile>
